<?xml version="1.0" encoding="UTF-8"?>
<svg id="Layer_1" xmlns="http://www.w3.org/2000/svg" version="1.1" xmlns:xlink="http://www.w3.org/1999/xlink" viewBox="0 0 197 40">
  <!-- Generator: Adobe Illustrator 29.1.0, SVG Export Plug-In . SVG Version: 2.1.0 Build 142)  -->
  <defs>
    <style>
      .st0 {
        fill: none;
      }

      .st1 {
        fill: #03012d;
      }

      .st2 {
        clip-path: url(#clippath);
      }

      .st3 {
        fill: #ff820a;
      }
    </style>
    <clipPath id="clippath">
      <rect class="st0" width="196.9" height="40"/>
    </clipPath>
  </defs>
  <g class="st2">
    <path class="st3" d="M25.1,1.1l-3.9-1.1-3.3,12.4L14.9,1.2l-3.9,1.1,3.2,12.1L6.1,6.3l-2.9,2.9,8.8,8.8L1.1,15l-1.1,3.9,12,3.2c-1-4.4,1.7-8.8,6.1-9.8,4.4-1,8.8,1.7,9.8,6.1.3,1.2.3,2.5,0,3.7l10.9,2.9,1.1-3.9-12.1-3.2,11-2.9-1.1-3.9-12.1,3.2,8.1-8.1-2.9-2.9-8.7,8.7s3-11,3-11Z"/>
    <path class="st3" d="M27.9,22.2c-.3,1.4-1,2.7-2,3.7l7.9,7.9,2.9-2.9-8.8-8.8ZM25.8,26c-1,1-2.3,1.8-3.6,2.2l2.9,10.7,3.9-1.1s-3.2-11.8-3.2-11.8ZM22,28.2c-.7.2-1.3.3-2,.3-.8,0-1.5-.1-2.2-.3l-2.9,10.8,3.9,1.1,3.2-11.8h0ZM17.6,28.1c-1.4-.4-2.6-1.2-3.6-2.2l-7.9,7.9,2.9,2.9,8.6-8.6h0ZM14,25.9c-1-1-1.7-2.3-2-3.7l-11,2.9,1.1,3.9,11.9-3.2Z"/>
    <path class="st1" d="M53.6,27l-3.3-14.5h3.5l2.2,11.8h.2l2.6-11.8h4l2.6,11.8h.3l2.2-11.8h3.3l-3.3,14.5h-4.4l-2.5-11.8h-.2l-2.5,11.8h-4.5ZM77.8,27.3c-1,0-1.8-.1-2.6-.4-.7-.2-1.3-.6-1.9-1.1-.5-.5-.9-1.2-1.2-1.8-.3-.7-.4-1.6-.4-2.5s.1-1.7.4-2.5c.2-.7.6-1.4,1.1-2,.5-.6,1.1-1,1.8-1.3.7-.3,1.5-.5,2.4-.5s1.7.1,2.4.4c.7.3,1.3.7,1.7,1.3.5.6.8,1.3,1,2.1.2.8.3,1.8.2,2.8h-9.1c0,0,0-1.7,0-1.7h7.2c0,0-1.1.8-1.1.8.1-.8,0-1.4-.2-1.9-.2-.5-.5-.9-.9-1.1-.4-.2-.8-.4-1.3-.4-.6,0-1,.1-1.5.4-.4.3-.8.7-1,1.3-.2.6-.4,1.2-.4,2,0,1.2.3,2.2.8,2.8.6.6,1.3.9,2.2.9s.8,0,1-.2c.3-.1.5-.3.7-.4.2-.2.3-.4.4-.6.1-.2.2-.4.3-.7l2.8.6c-.1.5-.3,1-.6,1.5-.2.4-.6.8-1,1.1-.4.3-.9.5-1.5.7-.6.2-1.3.3-2.1.3h0ZM88,27.3c-.6,0-1.2-.1-1.7-.4-.5-.3-.9-.6-1.2-1.1-.3-.5-.4-1.1-.4-1.8s.1-1.2.4-1.6c.2-.4.6-.8,1.1-1,.5-.3,1-.5,1.7-.7.7-.2,1.5-.3,2.4-.5.5,0,.8-.1,1.1-.2.3,0,.5-.2.7-.3.1-.2.2-.4.2-.7s-.1-.8-.4-1.1-.8-.4-1.4-.4-.8,0-1.2.2c-.4.1-.7.4-.9.7-.2.3-.4.7-.6,1.1l-2.8-.9c.2-.6.4-1.1.7-1.6.3-.4.7-.8,1.2-1.1.5-.3,1-.5,1.6-.7.6-.2,1.3-.2,2-.2,1.1,0,2,.2,2.8.6.7.4,1.3.9,1.6,1.7.4.7.5,1.7.5,2.9v2c0,.5,0,1,0,1.6,0,.5,0,1.1,0,1.6v1.6c.1,0-2.7,0-2.7,0,0-.4-.1-.8-.2-1.3,0-.5,0-1-.1-1.5h-.4c-.2.6-.5,1.1-.9,1.5-.4.5-.8.8-1.4,1.1-.5.3-1.2.4-1.9.4h0ZM89.3,25c.3,0,.6,0,.8-.2.3-.1.6-.2.8-.4.3-.2.5-.4.7-.7.2-.3.4-.6.6-.9v-1.8s.5.1.5.1c-.3.2-.6.3-.9.5-.4.1-.7.2-1.1.2-.4,0-.7.1-1.1.2-.3,0-.7.2-1,.3-.3.1-.5.3-.7.5-.2.2-.2.5-.2.8s.1.8.4,1.1.7.4,1.1.4ZM102.4,27.3c-1.3,0-2.2-.3-2.9-1-.6-.7-.9-1.8-.9-3.3v-5h-1.7v-2.5h1.2c.5,0,.8,0,1-.2s.4-.4.4-.7l.3-1.6h1.8v2.6h2.9v2.6h-2.9v4.8c0,.5.1.9.4,1.1.2.2.6.4,1.1.4s.5,0,.8,0c.2,0,.5-.1.7-.3v2.9c-.4.1-.8.2-1.3.3-.3,0-.7,0-1,0ZM106.9,27v-15.7h3.2v3.6c0,.3,0,.6,0,.9,0,.3,0,.7-.1,1,0,.3,0,.7-.2,1,0,.3,0,.7-.2,1h.5c.2-.7.5-1.4.8-1.9.3-.5.7-1,1.2-1.3.5-.3,1.1-.5,1.9-.5,1.3,0,2.4.5,3,1.4.7.9,1,2.4,1,4.3v6.1h-3.2v-5.6c0-1.2-.2-2.1-.6-2.7-.4-.6-.9-.9-1.6-.9s-1.1.2-1.5.5c-.4.4-.7.8-.9,1.4-.2.6-.3,1.2-.3,2v5.3s-3.2,0-3.2,0ZM126.1,27.3c-1,0-1.8-.1-2.6-.4-.7-.2-1.3-.6-1.9-1.1-.5-.5-.9-1.2-1.2-1.8-.3-.7-.4-1.6-.4-2.5s.1-1.7.4-2.5c.2-.7.6-1.4,1.1-2,.5-.6,1.1-1,1.8-1.3.7-.3,1.5-.5,2.4-.5s1.7.1,2.4.4c.7.3,1.3.7,1.7,1.3.5.6.8,1.3,1,2.1.2.8.3,1.8.2,2.8h-9.1c0,0,0-1.7,0-1.7h7.2c0,0-1.1.8-1.1.8.1-.8,0-1.4-.2-1.9-.2-.5-.5-.9-.9-1.1-.4-.2-.8-.4-1.3-.4-.6,0-1,.1-1.5.4-.4.3-.8.7-1,1.3-.2.6-.4,1.2-.4,2,0,1.2.3,2.2.8,2.8.6.6,1.3.9,2.2.9s.8,0,1-.2c.3-.1.5-.3.7-.4.2-.2.3-.4.4-.6.1-.2.2-.4.3-.7l2.8.6c-.1.5-.3,1-.6,1.5-.2.4-.6.8-1,1.1-.4.3-.9.5-1.5.7-.6.2-1.3.3-2.1.3ZM133.6,27v-11.6h2.6v3.9h.4c.1-1,.3-1.8.6-2.4.3-.6.7-1.1,1.2-1.4.5-.3,1.2-.4,1.9-.4s.3,0,.4,0c.2,0,.3,0,.6,0v3.4c-.4-.1-.6-.2-.9-.2-.2,0-.5,0-.7,0-.6,0-1.1.1-1.5.4-.4.3-.7.6-1,1.1-.2.5-.4,1.1-.5,1.8v5.3h-3.2ZM148.3,27v-14.5h4.1l6.6,10.3h.2l-.2-10.3h3.1v14.5h-3.7l-7-10.8h-.2l.2,10.8h-3.1ZM170.5,27.3c-1.2,0-2.2-.2-3.1-.7-.9-.5-1.6-1.2-2.1-2-.5-.9-.7-2-.7-3.4s.2-2.5.7-3.4c.5-.9,1.2-1.6,2.1-2,.9-.5,1.9-.7,3-.7s2.2.2,3.1.7c.9.5,1.6,1.2,2.1,2,.5.9.8,2,.8,3.4s-.3,2.5-.8,3.4c-.5.9-1.2,1.6-2.1,2-.9.4-1.9.7-3,.7h0ZM170.6,25c.6,0,1-.1,1.4-.4.4-.3.7-.7.9-1.2.2-.5.3-1.2.3-2s-.1-1.5-.3-2c-.2-.6-.5-1-.9-1.3-.4-.3-.9-.5-1.6-.5s-1,.1-1.4.4c-.4.2-.7.6-.9,1.2-.2.5-.3,1.2-.3,2,0,1.2.2,2.2.7,2.8.5.6,1.2,1,2.1,1ZM180.3,27l-2.9-11.6h3.3l1.6,9h.4l1.9-9h3.8l2,9h.4l1.6-9h3.2l-2.9,11.5h-4.4l-1.8-9h-.4l-1.7,9h-4.3Z"/>
  </g>
</svg>